<svg width="47" height="47" viewBox="0 0 47 47" fill="none" xmlns="http://www.w3.org/2000/svg">
<circle cx="23.3948" cy="23.85" r="23" fill="#6C47E4"/>
<path d="M19.0893 25.9184L19.0432 25.9897C19.0198 26.027 18.9893 26.0593 18.9533 26.0847C18.9173 26.1101 18.8766 26.128 18.8336 26.1376C18.7906 26.1471 18.7461 26.148 18.7028 26.1402C18.6595 26.1324 18.6181 26.1161 18.5811 26.0922C18.5441 26.0683 18.5122 26.0373 18.4873 26.0009C18.4624 25.9646 18.445 25.9237 18.4361 25.8806C18.4271 25.8375 18.4268 25.793 18.4352 25.7497C18.4436 25.7065 18.4605 25.6654 18.4849 25.6287L18.5309 25.5575C18.5793 25.4847 18.6545 25.434 18.74 25.4162C18.8256 25.3985 18.9147 25.4151 18.9881 25.4626C19.0615 25.51 19.1133 25.5844 19.1322 25.6697C19.1511 25.7551 19.1357 25.8444 19.0893 25.9184ZM28.1848 25.5575C28.1363 25.4847 28.0612 25.434 27.9756 25.4162C27.8901 25.3985 27.8009 25.4151 27.7275 25.4626C27.6542 25.51 27.6024 25.5844 27.5835 25.6697C27.5645 25.7551 27.58 25.8444 27.6264 25.9184L27.6724 25.9897C27.6957 26.0272 27.7263 26.0596 27.7623 26.0852C27.7983 26.1107 27.839 26.1289 27.8821 26.1385C27.9252 26.1482 27.9698 26.1491 28.0132 26.1414C28.0567 26.1336 28.0982 26.1173 28.1353 26.0933C28.1723 26.0693 28.2043 26.0382 28.2292 26.0017C28.2541 25.9653 28.2715 25.9243 28.2804 25.881C28.2893 25.8378 28.2895 25.7932 28.281 25.7499C28.2724 25.7065 28.2554 25.6654 28.2307 25.6287L28.1848 25.5575ZM33.8186 21.7666V23.3173C33.8191 23.5097 33.7581 23.6972 33.6445 23.8526C33.5309 24.0079 33.3707 24.1229 33.1872 24.1808L32.1287 24.518C31.9434 25.3405 31.642 26.1324 31.2334 26.8699L32.6086 29.0258C32.724 29.2074 32.7628 29.4274 32.7163 29.6375C32.6699 29.8476 32.542 30.0307 32.3608 30.1467L30.8527 31.1088C30.7231 31.1918 30.5725 31.2359 30.4187 31.236C30.2866 31.2361 30.1564 31.204 30.0395 31.1425C30.057 31.192 30.0711 31.2425 30.082 31.2938C30.1591 31.6592 30.0651 32.0431 29.8027 32.4348C29.7877 32.4572 29.7701 32.4777 29.7501 32.4958C29.4051 32.8093 28.9746 32.946 28.4662 32.9043C28.3924 33.223 28.247 33.4659 28.0317 33.629C27.8025 33.8028 27.5061 33.8764 27.1483 33.8488C27.0017 34.2734 26.7741 34.5643 26.4697 34.7156C26.1912 34.8539 25.8629 34.8692 25.4905 34.7618C25.3165 35.1452 25.0597 35.3972 24.724 35.513C24.5866 35.5598 24.4424 35.5832 24.2974 35.5824C23.8483 35.5824 23.3232 35.3755 22.7086 34.9587C22.4829 35.1724 22.1931 35.3731 21.8933 35.3825C21.8733 35.3832 21.8534 35.3835 21.8338 35.3835C21.2796 35.3835 20.873 35.1324 20.6606 34.6657C20.2187 34.7269 19.8704 34.6651 19.6015 34.4791C19.3942 34.3322 19.2435 34.1186 19.1747 33.8741C18.7884 33.8508 18.4799 33.7323 18.2552 33.5204C18.0586 33.3285 17.929 33.0785 17.8852 32.8073C17.5437 32.831 17.2637 32.7637 17.0493 32.6066C16.795 32.42 16.6486 32.1227 16.6142 31.7231C16.5943 31.478 16.641 31.232 16.7494 31.0113C16.6326 31.0726 16.5027 31.1046 16.3708 31.1045C16.2169 31.1045 16.0663 31.0603 15.9368 30.9773L14.4288 30.015C14.2474 29.8991 14.1195 29.716 14.073 29.5058C14.0266 29.2957 14.0654 29.0757 14.181 28.8941L15.5176 26.7988C15.1277 26.0797 14.839 25.3103 14.6597 24.5122L13.6053 24.1801C13.4211 24.1227 13.2602 24.0078 13.146 23.8522C13.0319 23.6967 12.9706 23.5086 12.9712 23.3157V21.7652C12.9707 21.5728 13.0317 21.3852 13.1453 21.2299C13.2588 21.0745 13.4191 20.9595 13.6026 20.9016L14.661 20.5643C14.8846 19.5692 15.2782 18.6202 15.8247 17.759L15.3136 16.778C15.2239 16.6072 15.1913 16.4121 15.2206 16.2214C15.25 16.0307 15.3397 15.8544 15.4765 15.7185L16.573 14.622C16.7087 14.4855 16.8844 14.396 17.0746 14.3665C17.2647 14.3369 17.4593 14.3689 17.63 14.4577L18.6175 14.9682C19.4791 14.4222 20.4284 14.029 21.4237 13.8061L21.7557 12.7517C21.8131 12.5675 21.928 12.4065 22.0836 12.2924C22.2392 12.1783 22.4272 12.1171 22.6202 12.1177H24.1708C24.3632 12.1172 24.5508 12.1782 24.7061 12.2917C24.8615 12.4053 24.9765 12.5655 25.0344 12.749L25.3714 13.8073C26.3665 14.0309 27.3156 14.4247 28.1767 14.9712L29.158 14.46C29.3288 14.3704 29.5239 14.3378 29.7146 14.3672C29.9053 14.3965 30.0816 14.4861 30.2176 14.623L31.3141 15.7194C31.4504 15.8551 31.5399 16.0308 31.5695 16.221C31.599 16.4111 31.5671 16.6057 31.4783 16.7765L30.9677 17.7644C31.5137 18.6258 31.9068 19.575 32.1297 20.5702L33.1841 20.9023C33.3683 20.9597 33.5293 21.0745 33.6435 21.2301C33.7576 21.3856 33.8189 21.5736 33.8183 21.7666L33.8186 21.7666ZM19.5692 25.5561C19.5896 25.5232 19.5963 25.4836 19.588 25.4458C19.5796 25.4079 19.5568 25.3748 19.5244 25.3536L18.0162 24.3914C17.993 24.3766 17.9661 24.3687 17.9385 24.3688C17.9275 24.3689 17.9165 24.3701 17.9058 24.3724C17.887 24.3765 17.8691 24.3842 17.8533 24.3951C17.8375 24.4061 17.824 24.42 17.8136 24.4362L14.7416 29.2519C14.721 29.2848 14.7142 29.3245 14.7226 29.3623C14.7309 29.4002 14.7538 29.4333 14.7864 29.4545L16.2945 30.4166C16.3274 30.4371 16.3671 30.444 16.4049 30.4356C16.4428 30.4273 16.4759 30.4044 16.4971 30.3719L19.5692 25.5561ZM18.7932 24.0985L19.882 24.793C20.0296 24.8876 20.1428 25.0274 20.2045 25.1916C20.2663 25.3557 20.2733 25.5354 20.2247 25.7039C20.6654 25.7894 21.1461 25.6706 21.6141 25.5545C22.2398 25.3992 22.9993 25.2106 23.4717 25.7646C24.6522 25.1366 25.129 25.2736 25.6978 25.5522C25.9112 25.6567 26.1128 25.7556 26.4329 25.7731C26.4732 25.7753 26.5122 25.7761 26.551 25.7768C26.5168 25.6153 26.5326 25.4473 26.5963 25.2951C26.66 25.1428 26.7686 25.0136 26.9076 24.9246L27.9348 24.2691C28.2119 23.5409 28.3098 22.7566 28.2201 21.9826C28.1305 21.2085 27.8559 20.4674 27.4196 19.8218C26.9834 19.1761 26.3982 18.6449 25.7135 18.2729C25.0288 17.901 24.2646 17.6992 23.4855 17.6846C22.7065 17.6701 21.9353 17.8431 21.2372 18.1892C20.539 18.5353 19.9344 19.0443 19.4743 19.6732C19.0142 20.302 18.7121 21.0324 18.5936 21.8025C18.475 22.5727 18.5435 23.36 18.7932 24.0981V24.0985ZM29.3115 30.202L26.9038 26.4279C26.7352 26.4438 26.5657 26.4469 26.3966 26.437C25.9417 26.4122 25.6442 26.2665 25.4053 26.1494C25.0043 25.953 24.714 25.8109 23.5439 26.4845C22.1154 27.539 21.5549 28.6317 21.6137 29.0723C21.6269 29.1716 21.6666 29.1869 21.693 29.1971C21.9352 29.2903 22.7542 29.1033 24.289 27.8084C24.9329 27.2658 26.3674 28.2105 28.3239 29.6045C28.691 29.8657 29.0079 30.0918 29.2174 30.2219C29.2299 30.2298 29.2417 30.2378 29.2538 30.2457C29.2746 30.2333 29.2939 30.2186 29.3115 30.202ZM18.0036 32.1238C18.6028 31.4054 18.8398 30.9038 18.9332 30.6277C18.8992 30.5388 18.8441 30.4595 18.7728 30.3965C18.7014 30.3336 18.6159 30.2887 18.5235 30.2659C18.4422 30.2458 18.3569 30.2484 18.277 30.2737C18.1971 30.299 18.1257 30.3459 18.0708 30.4091C18.0061 30.482 17.9376 30.5548 17.8713 30.6252C17.549 30.9677 17.2444 31.2912 17.2768 31.6661C17.2941 31.8663 17.3499 32.0024 17.443 32.0706C17.5521 32.1506 17.7448 32.1685 18.0036 32.1238ZM18.7112 33.0363C18.8286 33.147 19.0164 33.2056 19.2694 33.2121L20.8085 31.0426C20.8019 30.7902 20.7032 30.6243 20.5137 30.5496C20.2307 30.4382 19.8203 30.5438 19.5823 30.7807C19.4823 31.1001 19.217 31.7045 18.52 32.5424C18.5379 32.7667 18.6018 32.9329 18.7117 33.0363H18.7112ZM20.6993 33.9849C20.7773 33.8903 20.9197 33.7174 21.1048 33.4925C21.3313 33.2174 21.6386 32.8442 22.0268 32.3729C22.1502 32.0285 22.1478 31.7462 22.0177 31.594C21.8987 31.4546 21.6524 31.4054 21.3326 31.4536L19.795 33.6208C19.8303 33.7676 19.891 33.8706 19.9802 33.9322C20.1233 34.0312 20.3709 34.0488 20.6993 33.9849ZM22.5401 34.1487C22.8492 33.7355 22.9465 33.3893 22.9168 33.2753C22.8719 33.1025 22.6596 32.99 22.439 32.9183C22.0982 33.3317 21.8247 33.6639 21.6184 33.9149C21.4379 34.1344 21.3245 34.2719 21.2527 34.3591C21.3582 34.6218 21.5472 34.728 21.8727 34.7177C21.9723 34.7145 22.2536 34.5314 22.5401 34.1485V34.1487ZM29.4315 31.431C29.3853 31.2118 29.1943 30.9945 28.8639 30.7851C28.6392 30.6452 28.3143 30.4138 27.9383 30.1458C27.344 29.7224 26.6043 29.1954 25.9533 28.8142C24.9984 28.2549 24.7426 28.3107 24.7131 28.3206C23.6892 29.1837 22.2944 30.142 21.4534 29.8172C21.1739 29.7092 20.9969 29.4758 20.9547 29.16C20.8477 28.3577 21.6381 27.1446 22.9017 26.1392C22.713 26.0007 22.4037 26.0435 21.7746 26.1998C21.2168 26.3383 20.5391 26.5064 19.8817 26.3027L17.577 29.9154C17.5849 29.9243 17.5924 29.9325 17.5996 29.9401C17.7341 29.7967 17.9041 29.6913 18.0924 29.6346C18.2807 29.578 18.4806 29.5721 18.6719 29.6176C18.9594 29.6852 19.2133 29.8534 19.3877 30.0919C19.7995 29.8343 20.3273 29.7613 20.7579 29.931C21.1292 30.0773 21.3687 30.3754 21.4465 30.7736C21.9091 30.7484 22.2835 30.8812 22.5233 31.1618C22.769 31.4494 22.8409 31.8517 22.7353 32.3173C23.1906 32.4861 23.4676 32.751 23.5604 33.1078C23.6838 33.5815 23.3333 34.1734 23.143 34.4488C23.728 34.8333 24.2069 34.9877 24.5074 34.8841C24.6689 34.8285 24.7989 34.686 24.8964 34.4603L23.7588 33.6518C23.6881 33.6003 23.6404 33.523 23.6263 33.4366C23.6122 33.3502 23.6327 33.2617 23.6835 33.1903C23.7342 33.119 23.811 33.0705 23.8972 33.0554C23.9835 33.0404 24.0722 33.0599 24.1441 33.1099L25.457 34.0431C25.7657 34.1768 26.0067 34.2029 26.174 34.1198C26.3425 34.0361 26.4522 33.8308 26.5227 33.6229L24.4485 32.2693C24.4114 32.2457 24.3794 32.2149 24.3542 32.1788C24.3291 32.1428 24.3114 32.102 24.3021 32.0591C24.2928 32.0161 24.2921 31.9717 24.3001 31.9284C24.3081 31.8852 24.3246 31.8439 24.3486 31.8071C24.3726 31.7703 24.4037 31.7386 24.4401 31.7139C24.4765 31.6891 24.5174 31.6719 24.5605 31.6631C24.6036 31.6543 24.648 31.6541 24.6911 31.6626C24.7343 31.671 24.7753 31.688 24.8119 31.7124L27.0347 33.1629C27.3064 33.2127 27.5071 33.1918 27.6301 33.0986C27.7302 33.0226 27.7975 32.884 27.8317 32.6866L25.058 30.812C24.9849 30.7626 24.9344 30.6863 24.9177 30.5997C24.9009 30.5131 24.9193 30.4234 24.9686 30.3504C25.018 30.2773 25.0944 30.2269 25.181 30.2101C25.2675 30.1934 25.3572 30.2117 25.4303 30.2611L28.3169 32.2119C28.7183 32.2907 29.0321 32.2309 29.2732 32.0292C29.417 31.8038 29.4687 31.6078 29.4315 31.431ZM32.0482 29.3835L28.9761 24.5678C28.9549 24.5353 28.9218 24.5124 28.884 24.504C28.8461 24.4956 28.8064 24.5025 28.7735 24.523L27.2653 25.4851C27.233 25.5064 27.2101 25.5395 27.2018 25.5773C27.1934 25.6152 27.2002 25.6548 27.2206 25.6877L30.2925 30.5034C30.3137 30.5359 30.3468 30.5588 30.3846 30.5672C30.4225 30.5755 30.4621 30.5687 30.495 30.5482L32.0032 29.586C32.0357 29.5649 32.0586 29.5318 32.067 29.4939C32.0754 29.4561 32.0686 29.4164 32.048 29.3835L32.0482 29.3835ZM33.1535 21.7666C33.1546 21.715 33.1387 21.6644 33.1082 21.6228C33.0776 21.5812 33.0342 21.5508 32.9847 21.5364L31.745 21.146C31.6883 21.1282 31.6374 21.0954 31.5976 21.0512C31.5579 21.007 31.5307 20.9529 31.519 20.8946C31.3089 19.8491 30.8972 18.8546 30.3067 17.9667C30.2739 17.9173 30.255 17.8601 30.2518 17.8009C30.2486 17.7418 30.2612 17.6828 30.2884 17.6302L30.8876 16.4713C30.9122 16.4261 30.9213 16.374 30.9133 16.3231C30.9054 16.2722 30.881 16.2254 30.8438 16.1897L29.7474 15.0931C29.7117 15.0558 29.6647 15.0314 29.6137 15.0235C29.5627 15.0157 29.5105 15.0249 29.4652 15.0497L28.3121 15.6505C28.2593 15.678 28.2002 15.6908 28.1408 15.6876C28.0814 15.6844 28.024 15.6653 27.9745 15.6324C27.0869 15.0412 26.0926 14.6287 25.0472 14.4179C24.9892 14.4062 24.9353 14.3791 24.8912 14.3396C24.8471 14.3 24.8144 14.2494 24.7964 14.1929L24.4009 12.9508C24.3863 12.9014 24.3558 12.8582 24.3143 12.8278C24.2727 12.7974 24.2223 12.7815 24.1708 12.7826H22.6202C22.5686 12.7815 22.518 12.7975 22.4764 12.828C22.4348 12.8585 22.4044 12.9019 22.39 12.9515L21.9997 14.1907C21.9818 14.2475 21.9491 14.2984 21.9048 14.3381C21.8606 14.3779 21.8065 14.4051 21.7482 14.4168C20.7027 14.6268 19.7081 15.0386 18.8201 15.6292C18.7707 15.6619 18.7135 15.6809 18.6543 15.6841C18.5952 15.6873 18.5362 15.6746 18.4836 15.6474L17.3248 15.0482C17.2796 15.0236 17.2275 15.0146 17.1766 15.0225C17.1258 15.0304 17.0789 15.0548 17.0433 15.0919L15.9467 16.1886C15.9094 16.2243 15.885 16.2713 15.8771 16.3223C15.8693 16.3733 15.8785 16.4255 15.9033 16.4708L16.5041 17.6239C16.5316 17.6766 16.5444 17.7358 16.5412 17.7951C16.5381 17.8545 16.5191 17.9119 16.4862 17.9615C15.895 18.849 15.4825 19.8433 15.2717 20.8886C15.26 20.9467 15.2329 21.0006 15.1934 21.0447C15.1538 21.0888 15.1032 21.1215 15.0467 21.1395L13.8044 21.5352C13.755 21.5498 13.7118 21.5802 13.6814 21.6217C13.651 21.6633 13.6351 21.7137 13.6362 21.7652V23.3158C13.6351 23.3675 13.651 23.418 13.6816 23.4596C13.7121 23.5012 13.7555 23.5316 13.8051 23.5461L15.0444 23.9363C15.1011 23.9542 15.152 23.9869 15.1917 24.0312C15.2315 24.0754 15.2586 24.1295 15.2704 24.1878C15.4073 24.867 15.6296 25.5262 15.9319 26.1497L17.253 24.0786C17.3102 23.9887 17.3846 23.9109 17.472 23.8499C17.5594 23.7889 17.6581 23.7459 17.7622 23.7232C17.8388 23.7063 17.9174 23.7004 17.9957 23.7059C17.8215 22.8949 17.8322 22.055 18.0271 21.2488C18.222 20.4425 18.596 19.6905 19.1214 19.0485C19.6467 18.4066 20.3099 17.8913 21.0618 17.5408C21.8136 17.1904 22.6347 17.0138 23.4642 17.0242C24.2936 17.0346 25.11 17.2317 25.8528 17.6008C26.5957 17.97 27.2458 18.5018 27.7549 19.1567C28.264 19.8115 28.6191 20.5727 28.7937 21.3836C28.9683 22.1945 28.958 23.0343 28.7636 23.8407C28.8517 23.831 28.9408 23.8358 29.0274 23.8547C29.1315 23.8774 29.2301 23.9205 29.3175 23.9815C29.4049 24.0425 29.4794 24.1202 29.5366 24.2102L30.8212 26.224C31.1412 25.5807 31.3755 24.8981 31.5179 24.1938C31.5296 24.1357 31.5567 24.0819 31.5962 24.0378C31.6358 23.9936 31.6864 23.9609 31.7428 23.9429L32.9852 23.5473C33.0346 23.5327 33.0778 23.5023 33.1082 23.4607C33.1386 23.4192 33.1544 23.3688 33.1534 23.3173L33.1535 21.7666Z" fill="white"/>
</svg>
