<svg width="46" height="46" viewBox="0 0 46 46" fill="none" xmlns="http://www.w3.org/2000/svg">
<g clip-path="url(#clip0_42_134)">
<rect x="11.3453" y="11.48" width="24" height="24" rx="12" fill="#190041"/>
<path d="M28.0164 26.9487L28.5485 23.48H25.2203V21.23C25.2203 20.2808 25.6844 19.355 27.175 19.355H28.6891V16.4019C28.6891 16.4019 27.3156 16.1675 26.0031 16.1675C23.261 16.1675 21.4703 17.8292 21.4703 20.8362V23.48H18.4235V26.9487H21.4703V35.3347C22.0821 35.4308 22.7078 35.48 23.3453 35.48C23.9828 35.48 24.6086 35.4308 25.2203 35.3347V26.9487H28.0164Z" fill="white"/>
</g>
<circle cx="23.3453" cy="23.48" r="22" stroke="#190041"/>
<defs>
<clipPath id="clip0_42_134">
<rect x="11.3453" y="11.48" width="24" height="24" rx="12" fill="white"/>
</clipPath>
</defs>
</svg>
