<svg width="47" height="47" viewBox="0 0 47 47" fill="none" xmlns="http://www.w3.org/2000/svg">
<circle cx="23.2952" cy="23.8868" r="23" fill="#6C47E4"/>
<path d="M23.2021 11.2877C21.0041 11.2878 18.8851 12.1076 17.2593 13.5869C15.6336 15.0663 14.6181 17.0987 14.4112 19.287C14.3646 19.8409 14.2141 20.381 13.9674 20.8792L12.6729 23.5397C12.588 23.7145 12.5489 23.908 12.5593 24.102C12.5696 24.2961 12.6292 24.4843 12.7322 24.649C12.8353 24.8137 12.9786 24.9496 13.1485 25.0437C13.3185 25.1379 13.5096 25.1873 13.7039 25.1873H14.4571C14.5013 25.1873 14.5438 25.2043 14.5758 25.2347C14.6078 25.2651 14.627 25.3066 14.6293 25.3508L14.7703 28.0503C14.7921 28.4702 14.9743 28.8657 15.2792 29.1551C15.5842 29.4446 15.9887 29.6059 16.4091 29.6058H16.7731C16.9937 29.6063 17.2052 29.6943 17.361 29.8506C17.5168 30.0068 17.6042 30.2185 17.6041 30.4392V34.1638C17.6041 34.2492 17.638 34.3312 17.6985 34.3916C17.7589 34.452 17.8408 34.486 17.9263 34.486H28.4792C28.5646 34.486 28.6466 34.452 28.707 34.3916C28.7674 34.3312 28.8014 34.2492 28.8014 34.1638V29.453C28.7835 28.0427 29.2587 26.6705 30.1451 25.5735C31.3743 24.021 32.0399 22.0971 32.0326 20.117C32.03 17.7759 31.0988 15.5314 29.4433 13.8762C27.7878 12.2209 25.5432 11.29 23.2021 11.2877ZM29.6375 25.175C28.6599 26.3849 28.1357 27.8983 28.1557 29.4537V33.8416H18.2485V30.4392C18.2481 30.0478 18.0924 29.6725 17.8157 29.3957C17.5389 29.1189 17.1637 28.9632 16.7723 28.9627H16.4083C16.1527 28.9627 15.9068 28.8645 15.7216 28.6883C15.5363 28.5122 15.4258 28.2716 15.4129 28.0162L15.2719 25.3167C15.2608 25.1079 15.17 24.9113 15.0183 24.7675C14.8666 24.6236 14.6654 24.5434 14.4563 24.5435H13.7039C13.6188 24.5435 13.5351 24.5218 13.4606 24.4806C13.3862 24.4393 13.3234 24.3798 13.2782 24.3077C13.2331 24.2355 13.207 24.1531 13.2025 24.0681C13.198 23.983 13.2151 23.8983 13.2524 23.8217L14.5458 21.1599C14.8272 20.5925 14.9992 19.9771 15.0528 19.346C15.1726 18.0796 15.5859 16.8585 16.26 15.7796C16.9341 14.7008 17.8504 13.7939 18.9361 13.131C20.0218 12.4681 21.2471 12.0673 22.5147 11.9606C23.7824 11.8539 25.0574 12.0441 26.2387 12.5161C27.42 12.9881 28.475 13.729 29.32 14.6799C30.165 15.6308 30.7767 16.7656 31.1066 17.9942C31.4365 19.2228 31.4755 20.5114 31.2205 21.7577C30.9655 23.004 30.4235 24.1737 29.6375 25.1739V25.175ZM22.9711 15.9415C21.8678 15.9428 20.8099 16.3816 20.0297 17.1617C19.2494 17.9419 18.8105 18.9997 18.8091 20.1031C18.8091 21.0547 19.2826 21.672 19.7406 22.2682C20.2188 22.8912 20.7114 23.5343 20.7913 24.654H20.6727C20.5872 24.654 20.5053 24.688 20.4449 24.7484C20.3844 24.8088 20.3505 24.8908 20.3505 24.9762V25.5577C20.3508 25.7406 20.4066 25.9191 20.5104 26.0697C20.6142 26.2202 20.7612 26.3358 20.932 26.4011V26.7207C20.9326 26.9587 21.0269 27.1868 21.1945 27.3556C21.3621 27.5245 21.5895 27.6205 21.8275 27.6229V27.7721C21.8277 27.9824 21.9114 28.1839 22.0601 28.3326C22.2088 28.4812 22.4103 28.5648 22.6206 28.565H23.3219C23.5321 28.5647 23.7336 28.4811 23.8823 28.3325C24.0309 28.1838 24.1145 27.9823 24.1148 27.7721V27.6229C24.3527 27.6206 24.5802 27.5246 24.7478 27.3557C24.9154 27.1868 25.0097 26.9587 25.0103 26.7207V26.4011C25.181 26.3359 25.3279 26.2206 25.4318 26.0703C25.5357 25.92 25.5916 25.7417 25.5923 25.559V24.9775C25.5923 24.9352 25.584 24.8933 25.5678 24.8542C25.5516 24.8151 25.5279 24.7795 25.498 24.7496C25.4681 24.7197 25.4325 24.696 25.3934 24.6798C25.3543 24.6636 25.3124 24.6553 25.2701 24.6553H25.1515C25.2314 23.5356 25.7242 22.8925 26.2021 22.2695C26.6602 21.6725 27.1339 21.0552 27.1339 20.1043C27.1328 19.0006 26.6939 17.9424 25.9135 17.162C25.133 16.3816 24.0748 15.9426 22.9711 15.9415ZM24.9479 25.2997V25.559C24.9478 25.6278 24.9205 25.6937 24.8719 25.7423C24.8232 25.7909 24.7573 25.8183 24.6886 25.8183H21.2542C21.1855 25.8183 21.1195 25.7909 21.0709 25.7423C21.0223 25.6937 20.995 25.6278 20.9949 25.559V25.2997H24.9479ZM23.3219 27.9229H22.6206C22.5813 27.9225 22.5438 27.9067 22.516 27.8789C22.4882 27.8512 22.4724 27.8137 22.4719 27.7745V27.6257H23.4704V27.7745C23.4699 27.8137 23.4541 27.8511 23.4263 27.8788C23.3986 27.9066 23.3611 27.9224 23.3219 27.9229ZM24.1066 26.9813H21.8357C21.767 26.9813 21.701 26.9539 21.6524 26.9053C21.6038 26.8567 21.5765 26.7908 21.5764 26.722V26.4627H24.3659V26.722C24.3658 26.7908 24.3385 26.8567 24.2898 26.9053C24.2412 26.9539 24.1753 26.9813 24.1066 26.9813ZM25.6905 21.8777C25.1706 22.5554 24.5868 23.317 24.5048 24.6558H21.4372C21.3558 23.317 20.7717 22.5551 20.2515 21.8777C19.8229 21.3194 19.4525 20.8369 19.4525 20.1041C19.4604 19.1763 19.8345 18.2893 20.4934 17.6361C21.1522 16.9828 22.0424 16.6163 22.9702 16.6163C23.898 16.6163 24.7882 16.9828 25.4471 17.6361C26.1059 18.2893 26.48 19.1763 26.488 20.1041C26.489 20.8364 26.1189 21.3189 25.6905 21.8772V21.8777ZM22.6819 14.5442V13.605C22.6819 13.5195 22.7159 13.4376 22.7763 13.3771C22.8367 13.3167 22.9187 13.2828 23.0041 13.2828C23.0896 13.2828 23.1715 13.3167 23.232 13.3771C23.2924 13.4376 23.3263 13.5195 23.3263 13.605V14.5442C23.3263 14.6297 23.2924 14.7116 23.232 14.7721C23.1715 14.8325 23.0896 14.8664 23.0041 14.8664C22.9187 14.8664 22.8367 14.8325 22.7763 14.7721C22.7159 14.7116 22.6819 14.6297 22.6819 14.5442ZM27.9464 15.3572C27.9763 15.3871 28 15.4226 28.0162 15.4617C28.0324 15.5008 28.0408 15.5426 28.0408 15.5849C28.0408 15.6272 28.0324 15.6691 28.0162 15.7082C28 15.7473 27.9763 15.7828 27.9464 15.8127L27.2821 16.4772C27.2217 16.5376 27.1397 16.5715 27.0543 16.5715C26.9688 16.5715 26.8869 16.5376 26.8264 16.4772C26.766 16.4167 26.732 16.3348 26.732 16.2493C26.732 16.1638 26.766 16.0819 26.8264 16.0215L27.4907 15.3572C27.5511 15.2968 27.6331 15.2629 27.7185 15.2629C27.804 15.2629 27.8859 15.2968 27.9464 15.3572ZM29.9742 20.3188C29.9742 20.4042 29.9402 20.4862 29.8798 20.5466C29.8194 20.607 29.7374 20.641 29.652 20.641H28.7127C28.6272 20.641 28.5453 20.607 28.4849 20.5466C28.4244 20.4862 28.3905 20.4042 28.3905 20.3188C28.3905 20.2333 28.4244 20.1514 28.4849 20.091C28.5453 20.0305 28.6272 19.9966 28.7127 19.9966H29.6522C29.7376 19.9967 29.8195 20.0306 29.8799 20.0911C29.9403 20.1515 29.9742 20.2334 29.9742 20.3188ZM17.5515 20.2528C17.5515 20.2951 17.5432 20.337 17.527 20.3761C17.5108 20.4152 17.4871 20.4507 17.4571 20.4806C17.4272 20.5106 17.3917 20.5343 17.3526 20.5505C17.3135 20.5667 17.2716 20.575 17.2293 20.575H16.2903C16.2048 20.575 16.1229 20.5411 16.0625 20.4806C16.002 20.4202 15.9681 20.3383 15.9681 20.2528C15.9681 20.1674 16.002 20.0854 16.0625 20.025C16.1229 19.9646 16.2048 19.9306 16.2903 19.9306H17.2296C17.315 19.9306 17.397 19.9646 17.4574 20.025C17.5178 20.0854 17.5518 20.1674 17.5518 20.2528H17.5515ZM18.9344 16.5249C18.8921 16.5249 18.8501 16.5166 18.811 16.5004C18.7719 16.4842 18.7364 16.4605 18.7065 16.4305L18.0425 15.766C18.0118 15.7363 17.9872 15.7007 17.9704 15.6614C17.9535 15.6221 17.9446 15.5798 17.9442 15.537C17.9439 15.4942 17.9521 15.4518 17.9683 15.4122C17.9845 15.3726 18.0084 15.3367 18.0387 15.3064C18.0689 15.2762 18.1049 15.2523 18.1445 15.2361C18.1841 15.2199 18.2265 15.2118 18.2693 15.2121C18.3121 15.2125 18.3544 15.2214 18.3937 15.2383C18.433 15.2552 18.4685 15.2798 18.4983 15.3106L19.1625 15.9748C19.2076 16.0199 19.2383 16.0773 19.2507 16.1398C19.2631 16.2023 19.2568 16.2671 19.2324 16.326C19.208 16.3848 19.1667 16.4352 19.1137 16.4706C19.0607 16.506 18.9981 16.5249 18.9344 16.5249ZM24.9309 18.807C24.9608 18.8369 24.9845 18.8724 25.0007 18.9115C25.0169 18.9506 25.0252 18.9925 25.0252 19.0348C25.0252 19.0771 25.0169 19.119 25.0007 19.158C24.9845 19.1971 24.9608 19.2326 24.9309 19.2625L22.8046 21.3888C22.7747 21.4187 22.7392 21.4425 22.7001 21.4588C22.661 21.475 22.6191 21.4834 22.5768 21.4834C22.5344 21.4834 22.4925 21.475 22.4534 21.4588C22.4143 21.4425 22.3788 21.4187 22.3489 21.3888L21.0111 20.0515C20.9506 19.9909 20.9167 19.9087 20.9168 19.8231C20.9168 19.7375 20.9509 19.6554 21.0115 19.5949C21.0721 19.5344 21.1543 19.5004 21.2399 19.5005C21.3255 19.5006 21.4076 19.5347 21.4681 19.5953L22.5765 20.7054L24.4749 18.807C24.5048 18.777 24.5404 18.7532 24.5795 18.7369C24.6186 18.7206 24.6606 18.7123 24.703 18.7123C24.7454 18.7123 24.7874 18.7206 24.8265 18.7369C24.8657 18.7532 24.901 18.777 24.9309 18.807Z" fill="white"/>
</svg>
