<svg width="46" height="46" viewBox="0 0 46 46" fill="none" xmlns="http://www.w3.org/2000/svg">
<circle cx="22.8211" cy="23.48" r="22" stroke="#190041"/>
<rect x="10.8211" y="11.48" width="24" height="24" rx="2" fill="#190041"/>
<g clip-path="url(#clip0_42_131)">
<path d="M15.8211 18.3478C15.8211 17.8973 15.9788 17.5257 16.2941 17.2329C16.6094 16.9401 17.0193 16.7937 17.5238 16.7937C18.0193 16.7937 18.4202 16.9378 18.7265 17.2261C19.0418 17.5234 19.1995 17.9108 19.1995 18.3883C19.1995 18.8207 19.0463 19.1811 18.74 19.4694C18.4247 19.7667 18.0103 19.9153 17.4968 19.9153H17.4833C16.9878 19.9153 16.5869 19.7667 16.2806 19.4694C15.9743 19.1721 15.8211 18.7982 15.8211 18.3478ZM15.9968 30.1721V21.1451H18.9968V30.1721H15.9968ZM20.6589 30.1721H23.6589V25.1315C23.6589 24.8162 23.695 24.573 23.7671 24.4018C23.8932 24.0955 24.0846 23.8365 24.3414 23.6248C24.5981 23.4131 24.9202 23.3072 25.3076 23.3072C26.3166 23.3072 26.8211 23.9874 26.8211 25.3478V30.1721H29.8211V24.9964C29.8211 23.6631 29.5058 22.6518 28.8752 21.9626C28.2445 21.2734 27.4112 20.9288 26.3752 20.9288C25.213 20.9288 24.3076 21.4288 23.6589 22.4288V22.4559H23.6454L23.6589 22.4288V21.1451H20.6589C20.677 21.4333 20.686 22.3297 20.686 23.8342C20.686 25.3387 20.677 27.4513 20.6589 30.1721Z" fill="white"/>
</g>
<defs>
<clipPath id="clip0_42_131">
<rect x="15.8211" y="16.48" width="14" height="14" fill="white"/>
</clipPath>
</defs>
</svg>
