<svg width="47" height="47" viewBox="0 0 47 47" fill="none" xmlns="http://www.w3.org/2000/svg">
<circle cx="23.0959" cy="23.9606" r="23" fill="#6C47E4"/>
<path d="M12.2857 22.1178C12.1104 22.188 11.9576 22.3049 11.8439 22.4558C11.7303 22.6067 11.6601 22.7858 11.641 22.9738C11.5809 23.63 11.5809 24.2905 11.641 24.9467C11.6601 25.1351 11.7305 25.3147 11.8446 25.4658C11.9587 25.6169 12.1121 25.7339 12.288 25.8039L13.3951 26.2462C13.6406 27.2914 14.0549 28.2895 14.6217 29.2013L14.1529 30.2984C14.075 30.4724 14.0479 30.6649 14.0745 30.8537C14.1012 31.0425 14.1806 31.2199 14.3036 31.3656C14.7252 31.8668 15.1892 32.3308 15.6905 32.7525C15.8361 32.8753 16.0133 32.9546 16.2019 32.9813C16.3906 33.0081 16.5829 32.9811 16.7569 32.9035L17.3457 32.652V34.3103C17.3457 34.6153 17.4668 34.9078 17.6825 35.1235C17.8982 35.3391 18.1907 35.4603 18.4957 35.4603H27.6955C28.0005 35.4603 28.293 35.3391 28.5087 35.1235C28.7243 34.9078 28.8455 34.6153 28.8455 34.3103V32.652L29.4335 32.9031C29.566 32.9603 29.7086 32.9901 29.8529 32.9905C30.0904 32.9914 30.3203 32.9069 30.5007 32.7525C31.0019 32.331 31.4658 31.8672 31.8872 31.366C32.0103 31.2204 32.0898 31.0431 32.1166 30.8544C32.1434 30.6656 32.1163 30.4732 32.0386 30.2992L31.5698 29.2013C32.1366 28.2895 32.5509 27.2914 32.7965 26.2462L33.9054 25.8031C34.0809 25.7328 34.2338 25.6158 34.3477 25.4649C34.4615 25.314 34.5319 25.1348 34.5513 24.9467C34.6108 24.2904 34.6108 23.6301 34.5513 22.9738C34.5318 22.7855 34.4611 22.6062 34.347 22.4552C34.2329 22.3042 34.0797 22.1872 33.9039 22.117L32.7969 21.6747C32.5513 20.6295 32.1369 19.6314 31.5702 18.7196L32.0386 17.6225C32.1164 17.4484 32.1435 17.256 32.1169 17.0672C32.0902 16.8785 32.0109 16.701 31.888 16.5553C31.4665 16.0542 31.0026 15.5903 30.5015 15.1688C30.356 15.0456 30.1788 14.9658 29.9901 14.9387C29.8015 14.9116 29.6089 14.9382 29.4347 15.0155L28.3364 15.4862C27.4247 14.9194 26.4265 14.5051 25.3814 14.2596L24.9382 13.1506C24.868 12.9752 24.7511 12.8225 24.6002 12.7088C24.4493 12.5951 24.2702 12.525 24.0823 12.5058C23.426 12.446 22.7656 12.446 22.1093 12.5058C21.9209 12.525 21.7414 12.5954 21.5902 12.7095C21.4391 12.8236 21.3222 12.9769 21.2522 13.1529L20.8098 14.2599C19.7646 14.5055 18.7665 14.9198 17.8547 15.4866L16.7576 15.0178C16.5835 14.9401 16.391 14.913 16.2021 14.9398C16.0133 14.9665 15.8358 15.0459 15.6901 15.1688C15.1891 15.5904 14.7252 16.0543 14.3036 16.5553C14.1807 16.7009 14.1014 16.8782 14.0747 17.0668C14.048 17.2554 14.075 17.4477 14.1525 17.6217L14.6214 18.7196C14.0546 19.6314 13.6403 20.6295 13.3947 21.6747L12.2857 22.1178ZM25.7789 20.6692L27.5368 22.4271H26.1622C26.0605 22.4271 25.963 22.3867 25.8912 22.3149C25.8193 22.243 25.7789 22.1455 25.7789 22.0438V20.6692ZM28.5086 22.3148L25.8912 19.6974C25.7847 19.5903 25.658 19.5054 25.5184 19.4476C25.3789 19.3898 25.2292 19.3602 25.0782 19.3605H18.4957C18.1907 19.3605 17.8982 19.4817 17.6825 19.6973C17.4668 19.913 17.3457 20.2055 17.3457 20.5105V29.028C16.3698 27.9215 15.7339 26.5568 15.5144 25.0978C15.2948 23.6389 15.501 22.1475 16.108 20.8028C16.715 19.458 17.6972 18.317 18.9367 17.5166C20.1761 16.7163 21.6202 16.2905 23.0956 16.2905C24.571 16.2905 26.0151 16.7163 27.2545 17.5166C28.494 18.317 29.4761 19.458 30.0832 20.8028C30.6902 22.1475 30.8963 23.6389 30.6768 25.0978C30.4573 26.5568 29.8214 27.9215 28.8455 29.028V23.1278C28.8459 22.9768 28.8164 22.8271 28.7585 22.6876C28.7007 22.548 28.6157 22.4213 28.5086 22.3148ZM27.6955 34.6936H18.4957C18.394 34.6936 18.2965 34.6532 18.2246 34.5814C18.1527 34.5095 18.1123 34.412 18.1123 34.3103V20.5105C18.1123 20.4088 18.1527 20.3113 18.2246 20.2394C18.2965 20.1675 18.394 20.1272 18.4957 20.1272H25.0122V22.0438C25.0122 22.3488 25.1334 22.6413 25.3491 22.857C25.5647 23.0726 25.8572 23.1938 26.1622 23.1938H28.0789V34.3103C28.0789 34.412 28.0385 34.5095 27.9666 34.5814C27.8947 34.6532 27.7972 34.6936 27.6955 34.6936ZM14.1 22.0357C14.333 20.9421 14.7649 19.9006 15.3742 18.963C15.4084 18.9103 15.4292 18.8499 15.4346 18.7873C15.44 18.7246 15.4299 18.6616 15.4053 18.6038L14.8575 17.32C14.8366 17.2764 14.8286 17.2276 14.8344 17.1795C14.8403 17.1315 14.8597 17.0861 14.8904 17.0487C15.2853 16.5797 15.7196 16.1456 16.1888 15.7511C16.2263 15.7215 16.2713 15.7031 16.3188 15.6981C16.3663 15.6931 16.4143 15.7016 16.4571 15.7227L17.7401 16.2701C17.7979 16.2948 17.8609 16.3049 17.9236 16.2994C17.9862 16.294 18.0466 16.2733 18.0993 16.2391C19.0369 15.6298 20.0784 15.1979 21.172 14.9649C21.2336 14.9517 21.291 14.9236 21.3391 14.8831C21.3873 14.8425 21.4247 14.7907 21.448 14.7322L21.9648 13.4388C21.9822 13.3935 22.0117 13.3538 22.05 13.3239C22.0882 13.294 22.1339 13.275 22.1821 13.269C22.792 13.2134 23.4057 13.2134 24.0156 13.269C24.0627 13.2757 24.1072 13.2947 24.1445 13.3242C24.1818 13.3537 24.2106 13.3926 24.2279 13.4369L24.7439 14.7322C24.7673 14.7907 24.8047 14.8425 24.8528 14.8831C24.9009 14.9236 24.9583 14.9517 25.0199 14.9649C26.1135 15.1979 27.1551 15.6298 28.0927 16.2391C28.1454 16.2733 28.2057 16.294 28.2684 16.2994C28.331 16.3049 28.394 16.2948 28.4518 16.2701L29.7356 15.7223C29.7793 15.7014 29.828 15.6934 29.8761 15.6993C29.9242 15.7051 29.9696 15.7246 30.007 15.7553C30.476 16.15 30.9101 16.5844 31.3046 17.0536C31.3341 17.0911 31.3525 17.1362 31.3575 17.1837C31.3625 17.2312 31.354 17.2791 31.3329 17.322L30.7855 18.605C30.7609 18.6628 30.7508 18.7258 30.7562 18.7884C30.7616 18.8511 30.7823 18.9114 30.8166 18.9641C31.4259 19.9017 31.8578 20.9433 32.0908 22.0369C32.1039 22.0985 32.132 22.1559 32.1726 22.204C32.2132 22.2521 32.265 22.2895 32.3234 22.3129L33.6168 22.8296C33.6622 22.847 33.702 22.8764 33.732 22.9147C33.762 22.953 33.781 22.9987 33.787 23.047C33.8422 23.6567 33.8422 24.2703 33.787 24.88C33.7804 24.9273 33.7613 24.9719 33.7317 25.0092C33.7021 25.0466 33.6631 25.0755 33.6187 25.0928L32.3238 25.6087C32.2654 25.6321 32.2135 25.6695 32.173 25.7176C32.1324 25.7658 32.1043 25.8232 32.0911 25.8847C31.8582 26.9784 31.4263 28.0199 30.817 28.9575C30.7827 29.0102 30.762 29.0706 30.7566 29.1332C30.7512 29.1959 30.7612 29.2589 30.7859 29.3167L31.3337 30.6004C31.3547 30.6441 31.3628 30.6929 31.3568 30.741C31.3509 30.7892 31.3313 30.8346 31.3003 30.8718C30.9058 31.3411 30.4714 31.7753 30.002 32.1698C29.9647 32.1997 29.9195 32.2182 29.872 32.2232C29.8244 32.2281 29.7764 32.2193 29.7337 32.1978L28.8455 31.8187V30.1251C30.0841 28.9707 30.9465 27.4701 31.3205 25.8187C31.6945 24.1674 31.5627 22.4417 30.9424 20.8662C30.322 19.2908 29.2418 17.9385 27.8423 16.9855C26.4428 16.0325 24.7888 15.5228 23.0956 15.5228C21.4024 15.5228 19.7484 16.0325 18.3489 16.9855C16.9494 17.9385 15.8692 19.2908 15.2488 20.8662C14.6284 22.4417 14.4967 24.1674 14.8707 25.8187C15.2446 27.4701 16.1071 28.9707 17.3457 30.1251V31.8187L16.4552 32.1985C16.4115 32.2193 16.3628 32.2273 16.3147 32.2215C16.2667 32.2156 16.2213 32.1962 16.1838 32.1656C15.7147 31.7707 15.2804 31.3362 14.8858 30.8669C14.8563 30.8294 14.8379 30.7843 14.833 30.7368C14.828 30.6893 14.8366 30.6413 14.8579 30.5985L15.4053 29.3155C15.4299 29.2577 15.44 29.1947 15.4346 29.1321C15.4292 29.0694 15.4084 29.0091 15.3742 28.9564C14.7649 28.0188 14.333 26.9772 14.1 25.8836C14.0869 25.822 14.0588 25.7646 14.0182 25.7165C13.9776 25.6684 13.9258 25.631 13.8673 25.6076L12.574 25.0924C12.5287 25.0749 12.4889 25.0455 12.459 25.0072C12.4291 24.9689 12.4102 24.9233 12.4042 24.8751C12.3484 24.2652 12.3484 23.6515 12.4042 23.0416C12.4108 22.9945 12.4299 22.95 12.4594 22.9127C12.4889 22.8754 12.5278 22.8466 12.5721 22.8292L13.8673 22.3121C13.9259 22.2887 13.9777 22.2513 14.0183 22.2031C14.0589 22.1549 14.0869 22.0974 14.1 22.0357Z" fill="white"/>
<path d="M19.7578 23.8482C19.8296 23.9201 19.9271 23.9605 20.0288 23.9605H20.056C20.1109 23.9565 20.1642 23.9407 20.2124 23.9142C20.2606 23.8878 20.3026 23.8513 20.3355 23.8072L21.4854 22.2738C21.5156 22.2336 21.5376 22.1877 21.5501 22.139C21.5626 22.0902 21.5654 22.0395 21.5583 21.9896C21.5511 21.9398 21.5343 21.8919 21.5086 21.8485C21.483 21.8052 21.449 21.7674 21.4088 21.7372C21.3685 21.707 21.3227 21.685 21.2739 21.6725C21.2251 21.66 21.1744 21.6573 21.1246 21.6644C21.0747 21.6715 21.0268 21.6884 20.9835 21.714C20.9402 21.7397 20.9023 21.7736 20.8721 21.8139L19.9874 22.9937L19.9165 22.9228C19.8442 22.853 19.7474 22.8144 19.6468 22.8152C19.5463 22.8161 19.4502 22.8564 19.3791 22.9275C19.308 22.9986 19.2677 23.0947 19.2669 23.1952C19.266 23.2957 19.3046 23.3926 19.3745 23.4648L19.7578 23.8482Z" fill="white"/>
<path d="M22.7122 23.1938H23.8622C23.9638 23.1938 24.0613 23.1534 24.1332 23.0815C24.2051 23.0096 24.2455 22.9121 24.2455 22.8105C24.2455 22.7088 24.2051 22.6113 24.1332 22.5394C24.0613 22.4675 23.9638 22.4271 23.8622 22.4271H22.7122C22.6105 22.4271 22.513 22.4675 22.4411 22.5394C22.3692 22.6113 22.3289 22.7088 22.3289 22.8105C22.3289 22.9121 22.3692 23.0096 22.4411 23.0815C22.513 23.1534 22.6105 23.1938 22.7122 23.1938Z" fill="white"/>
<path d="M19.7578 29.9814C19.8296 30.0532 19.9271 30.0936 20.0288 30.0937H20.056C20.1109 30.0897 20.1642 30.0739 20.2124 30.0474C20.2606 30.021 20.3026 29.9844 20.3355 29.9403L21.4854 28.407C21.5464 28.3257 21.5726 28.2235 21.5583 28.1228C21.5439 28.0222 21.4901 27.9314 21.4088 27.8704C21.3274 27.8094 21.2252 27.7832 21.1246 27.7976C21.0239 27.8119 20.9331 27.8657 20.8721 27.947L19.9874 29.1269L19.9165 29.056C19.8442 28.9862 19.7474 28.9475 19.6468 28.9484C19.5463 28.9493 19.4502 28.9896 19.3791 29.0607C19.308 29.1317 19.2677 29.2279 19.2669 29.3284C19.266 29.4289 19.3046 29.5257 19.3745 29.598L19.7578 29.9814Z" fill="white"/>
<path d="M26.5455 28.5603H22.7122C22.6105 28.5603 22.513 28.6007 22.4411 28.6726C22.3692 28.7445 22.3289 28.842 22.3289 28.9436C22.3289 29.0453 22.3692 29.1428 22.4411 29.2147C22.513 29.2866 22.6105 29.327 22.7122 29.327H26.5455C26.6471 29.327 26.7446 29.2866 26.8165 29.2147C26.8884 29.1428 26.9288 29.0453 26.9288 28.9436C26.9288 28.842 26.8884 28.7445 26.8165 28.6726C26.7446 28.6007 26.6471 28.5603 26.5455 28.5603Z" fill="white"/>
<path d="M21.4499 24.8394C21.378 24.7675 21.2806 24.7272 21.1789 24.7272C21.0773 24.7272 20.9798 24.7675 20.9079 24.8394L20.4123 25.335L19.9166 24.8394C19.8443 24.7696 19.7475 24.7309 19.647 24.7318C19.5465 24.7327 19.4503 24.773 19.3793 24.8441C19.3082 24.9151 19.2679 25.0113 19.267 25.1118C19.2661 25.2123 19.3048 25.3091 19.3746 25.3814L19.8702 25.8771L19.3746 26.3727C19.338 26.4081 19.3088 26.4504 19.2887 26.4971C19.2686 26.5439 19.258 26.5942 19.2576 26.6451C19.2571 26.696 19.2668 26.7465 19.2861 26.7936C19.3054 26.8407 19.3339 26.8835 19.3698 26.9195C19.4058 26.9555 19.4486 26.984 19.4957 27.0032C19.5429 27.0225 19.5933 27.0322 19.6442 27.0318C19.6951 27.0313 19.7454 27.0207 19.7922 27.0006C19.839 26.9806 19.8813 26.9514 19.9166 26.9147L20.4123 26.4191L20.9079 26.9147C20.9802 26.9846 21.077 27.0232 21.1775 27.0223C21.278 27.0215 21.3742 26.9811 21.4453 26.9101C21.5163 26.839 21.5566 26.7429 21.5575 26.6424C21.5584 26.5418 21.5198 26.445 21.4499 26.3727L20.9543 25.8771L21.4499 25.3814C21.5218 25.3095 21.5622 25.2121 21.5622 25.1104C21.5622 25.0088 21.5218 24.9113 21.4499 24.8394Z" fill="white"/>
<path d="M26.5455 25.4938H22.7122C22.6105 25.4938 22.513 25.5342 22.4411 25.606C22.3692 25.6779 22.3289 25.7754 22.3289 25.8771C22.3289 25.9788 22.3692 26.0763 22.4411 26.1482C22.513 26.22 22.6105 26.2604 22.7122 26.2604H26.5455C26.6471 26.2604 26.7446 26.22 26.8165 26.1482C26.8884 26.0763 26.9288 25.9788 26.9288 25.8771C26.9288 25.7754 26.8884 25.6779 26.8165 25.606C26.7446 25.5342 26.6471 25.4938 26.5455 25.4938Z" fill="white"/>
<path d="M21.4499 30.9726C21.378 30.9007 21.2806 30.8604 21.1789 30.8604C21.0773 30.8604 20.9798 30.9007 20.9079 30.9726L20.4123 31.4682L19.9166 30.9726C19.8443 30.9028 19.7475 30.8641 19.647 30.865C19.5465 30.8659 19.4503 30.9062 19.3793 30.9773C19.3082 31.0483 19.2679 31.1445 19.267 31.245C19.2661 31.3455 19.3048 31.4423 19.3746 31.5146L19.8702 32.0103L19.3746 32.5059C19.338 32.5413 19.3088 32.5836 19.2887 32.6303C19.2686 32.6771 19.258 32.7274 19.2576 32.7783C19.2571 32.8292 19.2668 32.8797 19.2861 32.9268C19.3054 32.9739 19.3339 33.0167 19.3698 33.0527C19.4058 33.0887 19.4486 33.1171 19.4957 33.1364C19.5429 33.1557 19.5933 33.1654 19.6442 33.1649C19.6951 33.1645 19.7454 33.1539 19.7922 33.1338C19.839 33.1137 19.8813 33.0845 19.9166 33.0479L20.4123 32.5523L20.9079 33.0479C20.9802 33.1177 21.077 33.1564 21.1775 33.1555C21.278 33.1546 21.3742 33.1143 21.4453 33.0433C21.5163 32.9722 21.5566 32.876 21.5575 32.7755C21.5584 32.675 21.5198 32.5782 21.4499 32.5059L20.9543 32.0103L21.4499 31.5146C21.5218 31.4427 21.5622 31.3452 21.5622 31.2436C21.5622 31.142 21.5218 31.0445 21.4499 30.9726Z" fill="white"/>
<path d="M26.5455 31.627H22.7122C22.6105 31.627 22.513 31.6673 22.4411 31.7392C22.3692 31.8111 22.3289 31.9086 22.3289 32.0103C22.3289 32.1119 22.3692 32.2094 22.4411 32.2813C22.513 32.3532 22.6105 32.3936 22.7122 32.3936H26.5455C26.6471 32.3936 26.7446 32.3532 26.8165 32.2813C26.8884 32.2094 26.9288 32.1119 26.9288 32.0103C26.9288 31.9086 26.8884 31.8111 26.8165 31.7392C26.7446 31.6673 26.6471 31.627 26.5455 31.627Z" fill="white"/>
</svg>
