<svg width="47" height="47" viewBox="0 0 47 47" fill="none" xmlns="http://www.w3.org/2000/svg">
<circle cx="23.1956" cy="23.9237" r="23" fill="#6C47E4"/>
<path d="M28.2862 23.0173C26.6745 23.0173 25.2001 23.6255 24.0831 24.6242L23.6831 24.2243C23.4323 23.9734 23.0489 23.9119 22.7294 24.0728L21.92 24.487C21.8916 24.5012 21.8703 24.5012 21.8395 24.487C21.7189 24.4325 21.5934 24.3805 21.4656 24.3308C21.4372 24.3213 21.423 24.3047 21.4136 24.2763L21.1319 23.4102C21.0207 23.0717 20.7083 22.8422 20.351 22.8422H19.028C18.6707 22.8422 18.3559 23.0717 18.2494 23.4102L17.9654 24.2763C17.9559 24.3071 17.9417 24.3189 17.911 24.3308C17.7855 24.3781 17.6601 24.4302 17.5394 24.487C17.511 24.5012 17.4921 24.4988 17.4637 24.4846L16.6519 24.0704C16.3372 23.9095 15.9538 23.9687 15.6982 24.2219L14.7634 25.1567C14.5102 25.4099 14.4486 25.7933 14.6143 26.1105L15.0261 26.9198C15.0403 26.9506 15.0426 26.9695 15.0284 27.0027C14.974 27.1234 14.9219 27.2488 14.8722 27.3766C14.8628 27.405 14.8486 27.4192 14.8178 27.4287L13.954 27.7103C13.6132 27.8191 13.3836 28.1339 13.3836 28.4913V29.8142C13.3836 30.1716 13.6108 30.484 13.9516 30.5952L14.8178 30.8768C14.8462 30.8863 14.8628 30.9005 14.8722 30.9312C14.9196 31.0567 14.9716 31.1821 15.0284 31.3028C15.0426 31.3312 15.0426 31.3525 15.0284 31.3809L14.6167 32.1903C14.451 32.5074 14.5125 32.8908 14.7658 33.144L15.7006 34.0788C15.9538 34.3321 16.3372 34.3912 16.6519 34.2303L17.4661 33.8161C17.4945 33.8019 17.5134 33.8019 17.5418 33.8161C17.6554 33.8682 17.7808 33.9203 17.911 33.97C17.9133 33.97 17.9133 33.97 17.9157 33.9723C17.9441 33.9818 17.9583 33.996 17.9678 34.0268L18.2494 34.8929C18.3583 35.2337 18.6707 35.4609 19.0304 35.4609H20.3533C20.7107 35.4609 21.0231 35.2337 21.1343 34.8929L21.4159 34.0244C21.4254 33.996 21.4396 33.9794 21.4704 33.97C21.5958 33.9226 21.7212 33.8706 21.8419 33.8138C21.8703 33.7996 21.8916 33.8019 21.92 33.8161L22.7318 34.2303C23.0513 34.3912 23.4346 34.3297 23.6831 34.0788L23.9032 33.8635C25.0392 34.9616 26.5846 35.6384 28.2862 35.6384C31.7651 35.6384 34.5956 32.808 34.5956 29.329C34.5956 25.8501 31.7651 23.0173 28.2862 23.0173ZM23.0631 33.5818L22.2537 33.1677C22.0241 33.0494 21.7685 33.0446 21.5343 33.1535C21.4301 33.2008 21.3213 33.2458 21.2148 33.286C20.9734 33.3736 20.7959 33.5582 20.7178 33.8019L20.4361 34.6681C20.4219 34.7084 20.3935 34.7297 20.351 34.7297H19.028C18.9854 34.7297 18.957 34.7084 18.9428 34.6681L18.6612 33.8019C18.5831 33.5582 18.4056 33.3736 18.1642 33.286C18.0506 33.2434 17.9417 33.1985 17.8447 33.1535C17.6104 33.0446 17.3548 33.0494 17.1276 33.1677L16.3135 33.5818C16.2756 33.6008 16.2401 33.5937 16.2117 33.5653L15.2769 32.6305C15.2485 32.6021 15.2414 32.5642 15.2604 32.5263L15.6745 31.7122C15.7905 31.4827 15.7952 31.2271 15.6864 30.9951C15.639 30.891 15.5941 30.7821 15.5538 30.6756C15.4663 30.4343 15.2817 30.2568 15.0379 30.1787L14.1717 29.897C14.1315 29.8828 14.1078 29.8544 14.1078 29.8118V28.4913C14.1078 28.451 14.1291 28.4203 14.1717 28.4061L15.0379 28.1244C15.284 28.044 15.4663 27.8688 15.5538 27.6298C15.5941 27.521 15.639 27.4121 15.6864 27.3103C15.7952 27.0784 15.7905 26.8252 15.6745 26.5909L15.2604 25.7768C15.2414 25.7413 15.2485 25.7058 15.2769 25.675L16.2117 24.7402C16.2307 24.7236 16.2662 24.6976 16.3159 24.7213L17.1276 25.133C17.3572 25.2514 17.6128 25.2561 17.8447 25.1472C17.9488 25.0999 18.0577 25.0549 18.1618 25.0147C18.4032 24.9271 18.5807 24.7426 18.6612 24.4988L18.9452 23.6302C18.957 23.5924 18.9878 23.5687 19.028 23.5687H20.351C20.3935 23.5687 20.4243 23.59 20.4361 23.6302L20.7178 24.4964C20.7959 24.7402 20.9734 24.9248 21.2124 25.0123C21.3213 25.0526 21.4301 25.0975 21.5319 25.1449C21.7662 25.2537 22.0194 25.249 22.2513 25.133L23.0631 24.7189C23.101 24.7 23.1365 24.7071 23.1672 24.7355L23.5695 25.1378C23.03 25.746 22.604 26.4583 22.3318 27.2417C21.7331 26.4086 20.7604 25.8951 19.693 25.8951C17.8991 25.8951 16.4389 27.3553 16.4389 29.1492C16.4389 30.9431 17.8991 32.4033 19.693 32.4033C20.7059 32.4033 21.6455 31.9276 22.2513 31.1584C22.4951 31.9583 22.8927 32.6896 23.411 33.3191L23.1696 33.5605C23.127 33.6031 23.0891 33.596 23.0631 33.5818ZM21.9744 29.3267C21.9744 29.5917 21.991 29.8544 22.0241 30.1124C21.6384 31.0519 20.7107 31.6767 19.6883 31.6767C18.2967 31.6767 17.1655 30.5455 17.1655 29.1539C17.1655 27.7623 18.2967 26.6311 19.6883 26.6311C20.7556 26.6311 21.6999 27.2961 22.0596 28.2925C22.0052 28.6285 21.9744 28.9741 21.9744 29.3267ZM28.2862 34.9071C25.477 34.9071 23.1459 32.8198 22.7625 30.1148C22.7625 30.11 22.7602 30.1029 22.7602 30.0982C22.7247 29.8473 22.7057 29.5894 22.7057 29.329C22.7057 28.9883 22.7365 28.6546 22.7957 28.3303V28.328C23.269 25.7271 25.5504 23.7509 28.2838 23.7509C31.3604 23.7509 33.8619 26.2525 33.8619 29.329C33.8619 32.4056 31.3628 34.9071 28.2862 34.9071ZM28.2862 24.7378C25.7563 24.7378 23.6973 26.7968 23.6973 29.3267C23.6973 31.8566 25.7563 33.9155 28.2862 33.9155C30.8185 33.9155 32.8774 31.8566 32.8774 29.3267C32.8774 26.7968 30.8161 24.7378 28.2862 24.7378ZM28.2862 33.1843C26.1586 33.1843 24.4286 31.4543 24.4286 29.3267C24.4286 27.1991 26.1586 25.4691 28.2862 25.4691C30.4138 25.4691 32.1461 27.1991 32.1461 29.3267C32.1438 31.4543 30.4138 33.1843 28.2862 33.1843ZM30.6007 29.3267C30.6007 29.5278 30.4374 29.6935 30.2339 29.6935H28.2838C28.0827 29.6935 27.917 29.5302 27.917 29.3267V27.379C27.917 27.1778 28.0803 27.0121 28.2838 27.0121C28.485 27.0121 28.6507 27.1754 28.6507 27.379V28.9622H30.2339C30.4374 28.9622 30.6007 29.1255 30.6007 29.3267ZM19.0067 19.5242L22.3318 22.8493C22.8951 23.4125 23.8015 23.4244 24.3813 22.8919C24.3979 22.88 24.4121 22.8682 24.4263 22.854L30.8492 16.431L31.732 17.3138C31.9071 17.4889 32.1698 17.5433 32.4017 17.4487C32.6337 17.354 32.7828 17.1315 32.7828 16.8807V12.8243C32.7828 12.4859 32.5082 12.209 32.1698 12.209H28.1158C27.8649 12.209 27.6472 12.3533 27.5478 12.59C27.4531 12.8196 27.5052 13.0823 27.6827 13.2574L28.7548 14.3271L23.3755 19.704L20.1285 16.4571C20.1072 16.4334 20.0812 16.405 20.0551 16.3766C19.7759 16.095 19.4043 15.9411 19.0067 15.9411C18.6091 15.9411 18.2376 16.095 17.9559 16.3766L12.2311 22.1038C11.9495 22.383 11.7957 22.7546 11.7957 23.1522C11.7957 23.5498 11.9495 23.9213 12.2311 24.203C12.5127 24.4846 12.8843 24.6384 13.2819 24.6384C13.6795 24.6384 14.051 24.4846 14.3327 24.203L19.0067 19.5242ZM13.2795 23.9048C13.0784 23.9048 12.889 23.8267 12.747 23.6847C12.605 23.5427 12.5269 23.3534 12.5269 23.1522C12.5269 22.951 12.605 22.7641 12.747 22.6221L18.4719 16.8949C18.6139 16.7529 18.8032 16.6748 19.0043 16.6748C19.2055 16.6748 19.3925 16.7529 19.5345 16.8949C19.5534 16.9138 19.57 16.9327 19.5889 16.9517C19.5936 16.9564 19.5984 16.9611 19.6031 16.9659L23.1152 20.4779C23.2571 20.6199 23.4891 20.6199 23.6334 20.4779L29.3512 14.7649C29.5902 14.5259 29.5902 14.1354 29.3512 13.894L28.3974 12.9403H32.0491V16.5919L31.2847 15.8275C31.0457 15.5885 30.6552 15.5885 30.4138 15.8275L23.9458 22.2955C23.9316 22.3049 23.9198 22.3168 23.908 22.3286C23.6145 22.6197 23.1412 22.6197 22.8477 22.3286L19.267 18.7479C19.125 18.6059 18.8931 18.6059 18.7488 18.7479L13.812 23.6847C13.67 23.8267 13.4807 23.9048 13.2795 23.9048Z" fill="white"/>
</svg>
