<svg width="46" height="46" viewBox="0 0 46 46" fill="none" xmlns="http://www.w3.org/2000/svg">
<path d="M32.3539 18.6606C32.3631 18.8718 32.3631 19.0734 32.3631 19.2846C32.3724 25.6879 27.6679 33.0799 19.0647 33.0799C16.5272 33.0799 14.0361 32.3215 11.8969 30.9007C12.2673 30.9487 12.6377 30.9679 13.0081 30.9679C15.1103 30.9679 17.157 30.2383 18.8146 28.8847C16.8143 28.8463 15.0548 27.4927 14.4436 25.5151C15.1474 25.6591 15.8697 25.6303 16.555 25.4287C14.3787 24.9871 12.8137 22.9999 12.8044 20.6862C12.8044 20.667 12.8044 20.6478 12.8044 20.6286C13.4527 21.003 14.1843 21.2142 14.9251 21.2334C12.8785 19.8126 12.2395 16.9806 13.4804 14.763C15.8605 17.7966 19.361 19.6302 23.1209 19.8318C22.7412 18.1518 23.2598 16.3854 24.473 15.195C26.3529 13.3614 29.3163 13.4574 31.0944 15.4062C32.1409 15.195 33.1503 14.7918 34.0671 14.2254C33.7152 15.3486 32.9836 16.299 32.0112 16.9038C32.9373 16.7886 33.8449 16.5294 34.6968 16.1454C34.0671 17.1246 33.2707 17.9694 32.3539 18.6606Z" fill="#190041"/>
<circle cx="23.2969" cy="23.48" r="22" stroke="#190041"/>
</svg>
